<svg xmlns="http://www.w3.org/2000/svg" style="display: none;">
  
    <symbol id="icon-cog" viewBox="0 0 512 512">
      <path d="m329 256c0-20-7-37-21-52c-15-14-32-21-52-21c-20 0-37 7-52 21c-14 15-21 32-21 52c0 20 7 37 21 52c15 14 32 21 52 21c20 0 37-7 52-21c14-15 21-32 21-52z m146-31l0 63c0 3 0 5-2 7c-1 2-3 3-6 4l-52 8c-4 10-8 19-12 26c7 9 17 22 31 39c2 2 3 5 3 7c0 3-1 5-3 7c-5 7-14 17-28 31c-14 13-23 20-27 20c-2 0-5-1-7-3l-40-31c-8 5-17 8-26 11c-3 26-6 44-8 53c-1 6-5 8-10 8l-64 0c-2 0-5 0-7-2c-2-2-3-4-3-6l-8-53c-9-3-18-6-26-10l-40 30c-2 2-4 3-7 3c-3 0-5-1-7-3c-24-22-40-38-47-48c-2-2-2-4-2-7c0-2 0-4 2-6c3-4 8-11 14-19c7-9 12-16 16-21c-5-9-9-19-12-28l-52-8c-3 0-5-1-6-3c-2-2-2-4-2-7l0-63c0-3 0-5 2-7c1-2 3-3 5-4l53-8c3-8 7-17 12-26c-8-11-18-24-31-39c-2-3-3-5-3-7c0-2 1-4 3-7c5-7 14-17 28-30c14-14 23-21 27-21c2 0 5 1 7 3l40 31c8-5 17-8 26-11c3-26 6-44 8-53c1-6 5-8 10-8l64 0c2 0 5 0 7 2c2 2 3 4 3 6l8 53c9 3 18 6 26 10l40-30c2-2 4-3 7-3c3 0 5 1 7 3c25 23 41 39 47 49c2 1 2 3 2 6c0 2 0 4-2 6c-3 4-8 11-14 19c-7 9-12 16-16 21c5 9 9 18 12 28l52 8c3 0 5 1 6 3c2 2 2 4 2 7z"/>
    </symbol>
  
    <symbol id="icon-info" viewBox="0 0 512 512">
      <path d="m347 384l0 37c0 5-1 9-5 12c-4 4-8 6-13 6l-146 0c-5 0-9-2-13-6c-4-3-5-7-5-12l0-37c0-5 1-9 5-13c4-3 8-5 13-5l18 0l0-110l-18 0c-5 0-9-2-13-5c-4-4-5-8-5-13l0-37c0-5 1-9 5-13c4-3 8-5 13-5l110 0c5 0 9 2 12 5c4 4 6 8 6 13l0 165l18 0c5 0 9 2 13 5c4 4 5 8 5 13z m-36-329l0 55c0 5-2 9-6 13c-3 3-7 5-12 5l-74 0c-5 0-9-2-12-5c-4-4-6-8-6-13l0-55c0-5 2-9 6-13c3-4 7-5 12-5l74 0c5 0 9 1 12 5c4 4 6 8 6 13z"/>
    </symbol>
  
    <symbol id="icon-remove" viewBox="0 0 512 512">
      <path d="m426 378c0 7-3 14-8 19l-39 39c-5 5-12 8-20 8c-7 0-14-3-19-8l-84-84l-84 84c-5 5-12 8-19 8c-8 0-15-3-20-8l-39-39c-5-5-8-12-8-19c0-8 3-14 8-20l84-84l-84-84c-5-5-8-12-8-19c0-8 3-14 8-20l39-38c5-6 12-8 20-8c7 0 14 2 19 8l84 84l84-84c5-6 12-8 19-8c8 0 15 2 20 8l39 38c5 6 8 12 8 20c0 7-3 14-8 19l-84 84l84 84c5 6 8 12 8 20z"/>
    </symbol>
  
</svg>
